<?xml version="1.0" encoding="utf-8"?>
<!-- Generator: Adobe Illustrator 24.1.2, SVG Export Plug-In . SVG Version: 6.00 Build 0)  -->
<svg version="1.1" xmlns="http://www.w3.org/2000/svg" xmlns:xlink="http://www.w3.org/1999/xlink" x="0px" y="0px"
	 viewBox="0 0 336.88 145.25" style="enable-background:new 0 0 336.88 145.25;" xml:space="preserve">
<style type="text/css">
	.st0{fill:none;stroke:#A41C24;stroke-width:25;stroke-miterlimit:10;}
	.st1{fill:#FFCC00;stroke:#FFCC00;stroke-width:12;stroke-miterlimit:10;}
	.st2{fill:#008237;stroke:#008237;stroke-width:12;stroke-miterlimit:10;}
</style>
<g id="Camada_2">
</g>
<g id="Camada_1">
	<circle class="st0" cx="84.88" cy="72.62" r="47.95"/>
	<g>
		<path class="st1" d="M133.96,16.12c12.83-2.76,23.52-2.98,30.77-2.68c13.15,0.54,31.63,1.26,45.53,14.01
			c10.01,9.17,15.84,22.18,15.84,40.36c0,18.35-5.67,33.36-16.18,43.7c-10.51,10.51-27.85,16.18-49.7,16.18
			c-10.34,0-19.01-0.5-26.35-1.33C133.9,89.6,133.93,52.86,133.96,16.12z M148.88,115.17c3.67,0.67,9.01,0.83,14.68,0.83
			c31.02,0,47.87-17.34,47.87-47.7c0.17-26.52-14.84-43.36-45.53-43.36c-7.5,0-13.18,0.67-17.01,1.5V115.17z"/>
	</g>
	<g>
		<path class="st2" d="M218.57,17.3c12.92-3.64,23.75-4.12,30.88-3.94c11.03,0.28,30.85,0.75,45.44,14.3
			c9.95,9.24,15.7,22.28,15.58,40.46c-0.12,18.35-5.89,33.32-16.46,43.59c-10.57,10.44-27.95,16-49.8,15.86
			c-10.34-0.07-19.01-0.62-26.34-1.5l0.68-106.06C218.56,19.1,218.57,18.2,218.57,17.3z M232.3,114.99c3.66,0.69,9,0.89,14.67,0.93
			c31.02,0.2,47.98-17.04,48.17-47.39c0.34-26.52-14.56-43.46-45.25-43.65c-7.5-0.05-13.18,0.58-17.02,1.39L232.3,114.99z"/>
	</g>
</g>
</svg>
